<?xml version="1.0" encoding="UTF-8" standalone="no"?>
<!DOCTYPE svg PUBLIC "-//W3C//DTD SVG 1.1//EN"
 "http://www.w3.org/Graphics/SVG/1.1/DTD/svg11.dtd">
<!-- Generated by graphviz version 2.40.1 (20161225.0304)
 -->
<!-- Title: UmlClassDiagram Pages: 1 -->
<svg width="1346pt" height="1644pt"
 viewBox="0.00 0.00 1345.78 1644.00" xmlns="http://www.w3.org/2000/svg" xmlns:xlink="http://www.w3.org/1999/xlink">
<g id="graph0" class="graph" transform="scale(1 1) rotate(0) translate(4 1640)">
<title>UmlClassDiagram</title>
<polygon fill="#ffffff" stroke="transparent" points="-4,4 -4,-1640 1341.7813,-1640 1341.7813,4 -4,4"/>
<!-- 0 -->
<g id="node1" class="node">
<title>0</title>
<polygon fill="#f2f2f2" stroke="#000000" points="0,-1409.9 0,-1635.5 392.7708,-1635.5 392.7708,-1409.9 0,-1409.9"/>
<text text-anchor="middle" x="196.3854" y="-1618.9" font-family="Times,serif" font-size="14.00" fill="#000000">Airlines</text>
<polyline fill="none" stroke="#000000" points="0,-1610.7 392.7708,-1610.7 "/>
<text text-anchor="start" x="8" y="-1594.1" font-family="Times,serif" font-size="14.00" fill="#000000">Internal:</text>
<text text-anchor="start" x="8" y="-1577.3" font-family="Times,serif" font-size="14.00" fill="#000000"> &#160;&#160;airlines: mapping(address=&gt;Airline)</text>
<text text-anchor="start" x="8" y="-1560.5" font-family="Times,serif" font-size="14.00" fill="#000000"> &#160;&#160;registeredAirlineCount: uint</text>
<polyline fill="none" stroke="#000000" points="0,-1552.3 392.7708,-1552.3 "/>
<text text-anchor="start" x="8" y="-1535.7" font-family="Times,serif" font-size="14.00" fill="#000000">Internal:</text>
<text text-anchor="start" x="8" y="-1518.9" font-family="Times,serif" font-size="14.00" fill="#000000"> &#160;&#160;&#160;add(airlineAddress: address)</text>
<text text-anchor="start" x="8" y="-1502.1" font-family="Times,serif" font-size="14.00" fill="#000000"> &#160;&#160;&#160;register(airlineAddress: address)</text>
<text text-anchor="start" x="8" y="-1485.3" font-family="Times,serif" font-size="14.00" fill="#000000"> &#160;&#160;&#160;vote(airlineAddress: address, voterAddress: address)</text>
<text text-anchor="start" x="8" y="-1468.5" font-family="Times,serif" font-size="14.00" fill="#000000"> &#160;&#160;&#160;fund(airlineAddress: address, fundingAmount: uint256)</text>
<text text-anchor="start" x="8" y="-1451.7" font-family="Times,serif" font-size="14.00" fill="#000000">Public:</text>
<text text-anchor="start" x="8" y="-1434.9" font-family="Times,serif" font-size="14.00" fill="#000000"> &#160;&#160;&#160;&lt;&lt;modifier&gt;&gt; requireAirlineRegistered(airlineAddress: address)</text>
<text text-anchor="start" x="8" y="-1418.1" font-family="Times,serif" font-size="14.00" fill="#000000"> &#160;&#160;&#160;&lt;&lt;modifier&gt;&gt; requireAirlineFunded(airlineAddress: address)</text>
</g>
<!-- 0struct0 -->
<g id="node2" class="node">
<title>0struct0</title>
<polygon fill="#f2f2f2" stroke="#000000" points="131.8093,-1084.1 131.8093,-1184.1 260.9615,-1184.1 260.9615,-1084.1 131.8093,-1084.1"/>
<text text-anchor="middle" x="196.3854" y="-1167.5" font-family="Times,serif" font-size="14.00" fill="#000000">&lt;&lt;struct&gt;&gt;</text>
<text text-anchor="middle" x="196.3854" y="-1150.7" font-family="Times,serif" font-size="14.00" fill="#000000">Airline</text>
<polyline fill="none" stroke="#000000" points="131.8093,-1142.5 260.9615,-1142.5 "/>
<text text-anchor="start" x="139.8093" y="-1125.9" font-family="Times,serif" font-size="14.00" fill="#000000">status: AirlineStatus</text>
<text text-anchor="start" x="139.8093" y="-1109.1" font-family="Times,serif" font-size="14.00" fill="#000000">votes: address[]</text>
<text text-anchor="start" x="139.8093" y="-1092.3" font-family="Times,serif" font-size="14.00" fill="#000000">funds: uint</text>
</g>
<!-- 0struct0&#45;&gt;0 -->
<g id="edge1" class="edge">
<title>0struct0&#45;&gt;0</title>
<path fill="none" stroke="#000000" d="M196.3854,-1184.1071C196.3854,-1237.6871 196.3854,-1324.804 196.3854,-1397.2525"/>
<polygon fill="#000000" stroke="#000000" points="196.3855,-1397.6696 200.3854,-1403.6696 196.3854,-1409.6696 192.3854,-1403.6696 196.3855,-1397.6696"/>
</g>
<!-- 0enum0 -->
<g id="node3" class="node">
<title>0enum0</title>
<polygon fill="#f2f2f2" stroke="#000000" points="23.4471,-1084.1 23.4471,-1184.1 113.3237,-1184.1 113.3237,-1084.1 23.4471,-1084.1"/>
<text text-anchor="middle" x="68.3854" y="-1167.5" font-family="Times,serif" font-size="14.00" fill="#000000">&lt;&lt;enum&gt;&gt;</text>
<text text-anchor="middle" x="68.3854" y="-1150.7" font-family="Times,serif" font-size="14.00" fill="#000000">AirlineStatus</text>
<polyline fill="none" stroke="#000000" points="23.4471,-1142.5 113.3237,-1142.5 "/>
<text text-anchor="start" x="31.4471" y="-1125.9" font-family="Times,serif" font-size="14.00" fill="#000000">Unregistered</text>
<text text-anchor="start" x="31.4471" y="-1109.1" font-family="Times,serif" font-size="14.00" fill="#000000">Registered</text>
<text text-anchor="start" x="31.4471" y="-1092.3" font-family="Times,serif" font-size="14.00" fill="#000000">Funded</text>
</g>
<!-- 0enum0&#45;&gt;0 -->
<g id="edge2" class="edge">
<title>0enum0&#45;&gt;0</title>
<path fill="none" stroke="#000000" d="M76.0922,-1184.1103C84.4866,-1233.2098 99.8066,-1309.7832 122.3854,-1373.4 125.3457,-1381.7408 128.6553,-1390.2203 132.1885,-1398.6863"/>
<polygon fill="#000000" stroke="#000000" points="132.2226,-1398.766 138.2633,-1402.7043 136.9514,-1409.7951 130.9106,-1405.8568 132.2226,-1398.766"/>
</g>
<!-- 1 -->
<g id="node4" class="node">
<title>1</title>
<polygon fill="#f2f2f2" stroke="#000000" points="187.1262,-212.7 187.1262,-858.3 811.6446,-858.3 811.6446,-212.7 187.1262,-212.7"/>
<text text-anchor="middle" x="499.3854" y="-841.7" font-family="Times,serif" font-size="14.00" fill="#000000">FlightSuretyApp</text>
<polyline fill="none" stroke="#000000" points="187.1262,-833.5 811.6446,-833.5 "/>
<text text-anchor="start" x="195.1262" y="-816.9" font-family="Times,serif" font-size="14.00" fill="#000000">Private:</text>
<text text-anchor="start" x="195.1262" y="-800.1" font-family="Times,serif" font-size="14.00" fill="#000000"> &#160;&#160;STATUS_CODE_UNKNOWN: uint8</text>
<text text-anchor="start" x="195.1262" y="-783.3" font-family="Times,serif" font-size="14.00" fill="#000000"> &#160;&#160;STATUS_CODE_ON_TIME: uint8</text>
<text text-anchor="start" x="195.1262" y="-766.5" font-family="Times,serif" font-size="14.00" fill="#000000"> &#160;&#160;STATUS_CODE_LATE_AIRLINE: uint8</text>
<text text-anchor="start" x="195.1262" y="-749.7" font-family="Times,serif" font-size="14.00" fill="#000000"> &#160;&#160;STATUS_CODE_LATE_WEATHER: uint8</text>
<text text-anchor="start" x="195.1262" y="-732.9" font-family="Times,serif" font-size="14.00" fill="#000000"> &#160;&#160;STATUS_CODE_LATE_TECHNICAL: uint8</text>
<text text-anchor="start" x="195.1262" y="-716.1" font-family="Times,serif" font-size="14.00" fill="#000000"> &#160;&#160;STATUS_CODE_LATE_OTHER: uint8</text>
<text text-anchor="start" x="195.1262" y="-699.3" font-family="Times,serif" font-size="14.00" fill="#000000"> &#160;&#160;contractOwner: address</text>
<text text-anchor="start" x="195.1262" y="-682.5" font-family="Times,serif" font-size="14.00" fill="#000000"> &#160;&#160;flights: mapping(bytes32=&gt;Flight)</text>
<text text-anchor="start" x="195.1262" y="-665.7" font-family="Times,serif" font-size="14.00" fill="#000000"> &#160;&#160;nonce: uint8</text>
<text text-anchor="start" x="195.1262" y="-648.9" font-family="Times,serif" font-size="14.00" fill="#000000"> &#160;&#160;MIN_RESPONSES: uint256</text>
<text text-anchor="start" x="195.1262" y="-632.1" font-family="Times,serif" font-size="14.00" fill="#000000"> &#160;&#160;oracles: mapping(address=&gt;Oracle)</text>
<text text-anchor="start" x="195.1262" y="-615.3" font-family="Times,serif" font-size="14.00" fill="#000000"> &#160;&#160;oracleResponses: mapping(bytes32=&gt;ResponseInfo)</text>
<text text-anchor="start" x="195.1262" y="-598.5" font-family="Times,serif" font-size="14.00" fill="#000000">Public:</text>
<text text-anchor="start" x="195.1262" y="-581.7" font-family="Times,serif" font-size="14.00" fill="#000000"> &#160;&#160;flightData: FlightSuretyData</text>
<text text-anchor="start" x="195.1262" y="-564.9" font-family="Times,serif" font-size="14.00" fill="#000000"> &#160;&#160;REGISTRATION_FEE: uint256</text>
<polyline fill="none" stroke="#000000" points="187.1262,-556.7 811.6446,-556.7 "/>
<text text-anchor="start" x="195.1262" y="-540.1" font-family="Times,serif" font-size="14.00" fill="#000000">Internal:</text>
<text text-anchor="start" x="195.1262" y="-523.3" font-family="Times,serif" font-size="14.00" fill="#000000"> &#160;&#160;&#160;processFlightStatus(airline: address, flight: string, timestamp: uint256, statusCode: uint8)</text>
<text text-anchor="start" x="195.1262" y="-506.5" font-family="Times,serif" font-size="14.00" fill="#000000"> &#160;&#160;&#160;getFlightKey(airline: address, flight: string, timestamp: uint256): bytes32</text>
<text text-anchor="start" x="195.1262" y="-489.7" font-family="Times,serif" font-size="14.00" fill="#000000"> &#160;&#160;&#160;generateIndexes(account: address): uint8[]</text>
<text text-anchor="start" x="195.1262" y="-472.9" font-family="Times,serif" font-size="14.00" fill="#000000"> &#160;&#160;&#160;getRandomIndex(account: address): uint8</text>
<text text-anchor="start" x="195.1262" y="-456.1" font-family="Times,serif" font-size="14.00" fill="#000000">External:</text>
<text text-anchor="start" x="195.1262" y="-439.3" font-family="Times,serif" font-size="14.00" fill="#000000"> &#160;&#160;&#160;&lt;&lt;payable&gt;&gt; registerOracle()</text>
<text text-anchor="start" x="195.1262" y="-422.5" font-family="Times,serif" font-size="14.00" fill="#000000"> &#160;&#160;&#160;registerAirline(airlineAddress: address): (success: bool, votes: uint256)</text>
<text text-anchor="start" x="195.1262" y="-405.7" font-family="Times,serif" font-size="14.00" fill="#000000"> &#160;&#160;&#160;registerFlight()</text>
<text text-anchor="start" x="195.1262" y="-388.9" font-family="Times,serif" font-size="14.00" fill="#000000"> &#160;&#160;&#160;fetchFlightStatus(airline: address, flight: string, timestamp: uint256)</text>
<text text-anchor="start" x="195.1262" y="-372.1" font-family="Times,serif" font-size="14.00" fill="#000000"> &#160;&#160;&#160;getMyIndexes(): uint8[]</text>
<text text-anchor="start" x="195.1262" y="-355.3" font-family="Times,serif" font-size="14.00" fill="#000000"> &#160;&#160;&#160;submitOracleResponse(index: uint8, airline: address, flight: string, timestamp: uint256, statusCode: uint8)</text>
<text text-anchor="start" x="195.1262" y="-338.5" font-family="Times,serif" font-size="14.00" fill="#000000">Public:</text>
<text text-anchor="start" x="195.1262" y="-321.7" font-family="Times,serif" font-size="14.00" fill="#000000"> &#160;&#160;&#160;&lt;&lt;event&gt;&gt; FlightStatusInfo(airline: address, flight: string, timestamp: uint256, status: uint8)</text>
<text text-anchor="start" x="195.1262" y="-304.9" font-family="Times,serif" font-size="14.00" fill="#000000"> &#160;&#160;&#160;&lt;&lt;event&gt;&gt; OracleReport(airline: address, flight: string, timestamp: uint256, status: uint8)</text>
<text text-anchor="start" x="195.1262" y="-288.1" font-family="Times,serif" font-size="14.00" fill="#000000"> &#160;&#160;&#160;&lt;&lt;event&gt;&gt; OracleRequest(index: uint8, airline: address, flight: string, timestamp: uint256)</text>
<text text-anchor="start" x="195.1262" y="-271.3" font-family="Times,serif" font-size="14.00" fill="#000000"> &#160;&#160;&#160;&lt;&lt;modifier&gt;&gt; requireIsOperational()</text>
<text text-anchor="start" x="195.1262" y="-254.5" font-family="Times,serif" font-size="14.00" fill="#000000"> &#160;&#160;&#160;&lt;&lt;modifier&gt;&gt; requireContractOwner()</text>
<text text-anchor="start" x="195.1262" y="-237.7" font-family="Times,serif" font-size="14.00" fill="#000000"> &#160;&#160;&#160;constructor(dataContract: address)</text>
<text text-anchor="start" x="195.1262" y="-220.9" font-family="Times,serif" font-size="14.00" fill="#000000"> &#160;&#160;&#160;isOperational(): bool</text>
</g>
<!-- 2 -->
<g id="node8" class="node">
<title>2</title>
<polygon fill="#f2f2f2" stroke="#000000" points="278.6946,-895.3 278.6946,-1372.9 720.0762,-1372.9 720.0762,-895.3 278.6946,-895.3"/>
<text text-anchor="middle" x="499.3854" y="-1356.3" font-family="Times,serif" font-size="14.00" fill="#000000">FlightSuretyData</text>
<polyline fill="none" stroke="#000000" points="278.6946,-1348.1 720.0762,-1348.1 "/>
<text text-anchor="start" x="286.6946" y="-1331.5" font-family="Times,serif" font-size="14.00" fill="#000000">Private:</text>
<text text-anchor="start" x="286.6946" y="-1314.7" font-family="Times,serif" font-size="14.00" fill="#000000"> &#160;&#160;contractOwner: address</text>
<text text-anchor="start" x="286.6946" y="-1297.9" font-family="Times,serif" font-size="14.00" fill="#000000"> &#160;&#160;operational: bool</text>
<text text-anchor="start" x="286.6946" y="-1281.1" font-family="Times,serif" font-size="14.00" fill="#000000"> &#160;&#160;authorizedCaller: mapping(address=&gt;bool)</text>
<polyline fill="none" stroke="#000000" points="278.6946,-1272.9 720.0762,-1272.9 "/>
<text text-anchor="start" x="286.6946" y="-1256.3" font-family="Times,serif" font-size="14.00" fill="#000000">Internal:</text>
<text text-anchor="start" x="286.6946" y="-1239.5" font-family="Times,serif" font-size="14.00" fill="#000000"> &#160;&#160;&#160;getFlightKey(airline: address, flight: string, timestamp: uint256): bytes32</text>
<text text-anchor="start" x="286.6946" y="-1222.7" font-family="Times,serif" font-size="14.00" fill="#000000">External:</text>
<text text-anchor="start" x="286.6946" y="-1205.9" font-family="Times,serif" font-size="14.00" fill="#000000"> &#160;&#160;&#160;&lt;&lt;payable&gt;&gt; buy()</text>
<text text-anchor="start" x="286.6946" y="-1189.1" font-family="Times,serif" font-size="14.00" fill="#000000"> &#160;&#160;&#160;registerAirline(airlineAddress: address)</text>
<text text-anchor="start" x="286.6946" y="-1172.3" font-family="Times,serif" font-size="14.00" fill="#000000"> &#160;&#160;&#160;deauthorizeCaller(_address: address)</text>
<text text-anchor="start" x="286.6946" y="-1155.5" font-family="Times,serif" font-size="14.00" fill="#000000"> &#160;&#160;&#160;registeredAirlinesCount(): uint256</text>
<text text-anchor="start" x="286.6946" y="-1138.7" font-family="Times,serif" font-size="14.00" fill="#000000"> &#160;&#160;&#160;isAirlineRegistered(airlineAddress: address): bool</text>
<text text-anchor="start" x="286.6946" y="-1121.9" font-family="Times,serif" font-size="14.00" fill="#000000"> &#160;&#160;&#160;authorizeCaller(_address: address)</text>
<text text-anchor="start" x="286.6946" y="-1105.1" font-family="Times,serif" font-size="14.00" fill="#000000"> &#160;&#160;&#160;voteAirline(airlineAddress: address, voterAddress: address): uint256</text>
<text text-anchor="start" x="286.6946" y="-1088.3" font-family="Times,serif" font-size="14.00" fill="#000000"> &#160;&#160;&#160;fundAirline(airlineAddress: address, fundingAmount: uint256): uint256</text>
<text text-anchor="start" x="286.6946" y="-1071.5" font-family="Times,serif" font-size="14.00" fill="#000000"> &#160;&#160;&#160;setOperatingStatus(mode: bool)</text>
<text text-anchor="start" x="286.6946" y="-1054.7" font-family="Times,serif" font-size="14.00" fill="#000000"> &#160;&#160;&#160;creditInsurees()</text>
<text text-anchor="start" x="286.6946" y="-1037.9" font-family="Times,serif" font-size="14.00" fill="#000000"> &#160;&#160;&#160;pay()</text>
<text text-anchor="start" x="286.6946" y="-1021.1" font-family="Times,serif" font-size="14.00" fill="#000000">Public:</text>
<text text-anchor="start" x="286.6946" y="-1004.3" font-family="Times,serif" font-size="14.00" fill="#000000"> &#160;&#160;&#160;&lt;&lt;fallback&gt;&gt; ()</text>
<text text-anchor="start" x="286.6946" y="-987.5" font-family="Times,serif" font-size="14.00" fill="#000000"> &#160;&#160;&#160;&lt;&lt;payable&gt;&gt; fund()</text>
<text text-anchor="start" x="286.6946" y="-970.7" font-family="Times,serif" font-size="14.00" fill="#000000"> &#160;&#160;&#160;&lt;&lt;modifier&gt;&gt; requireIsOperational()</text>
<text text-anchor="start" x="286.6946" y="-953.9" font-family="Times,serif" font-size="14.00" fill="#000000"> &#160;&#160;&#160;&lt;&lt;modifier&gt;&gt; requireContractOwner()</text>
<text text-anchor="start" x="286.6946" y="-937.1" font-family="Times,serif" font-size="14.00" fill="#000000"> &#160;&#160;&#160;&lt;&lt;modifier&gt;&gt; requireCallerAuthorized()</text>
<text text-anchor="start" x="286.6946" y="-920.3" font-family="Times,serif" font-size="14.00" fill="#000000"> &#160;&#160;&#160;constructor()</text>
<text text-anchor="start" x="286.6946" y="-903.5" font-family="Times,serif" font-size="14.00" fill="#000000"> &#160;&#160;&#160;isOperational(): bool</text>
</g>
<!-- 1&#45;&gt;2 -->
<g id="edge10" class="edge">
<title>1&#45;&gt;2</title>
<path fill="none" stroke="#000000" d="M499.3854,-858.4532C499.3854,-867.2841 499.3854,-876.0874 499.3854,-884.8321"/>
<polygon fill="#000000" stroke="#000000" points="495.8855,-885.0687 499.3854,-895.0687 502.8855,-885.0688 495.8855,-885.0687"/>
</g>
<!-- 1struct0 -->
<g id="node5" class="node">
<title>1struct0</title>
<polygon fill="#f2f2f2" stroke="#000000" points="249.6452,-29.7 249.6452,-146.5 423.1256,-146.5 423.1256,-29.7 249.6452,-29.7"/>
<text text-anchor="middle" x="336.3854" y="-129.9" font-family="Times,serif" font-size="14.00" fill="#000000">&lt;&lt;struct&gt;&gt;</text>
<text text-anchor="middle" x="336.3854" y="-113.1" font-family="Times,serif" font-size="14.00" fill="#000000">Flight</text>
<polyline fill="none" stroke="#000000" points="249.6452,-104.9 423.1256,-104.9 "/>
<text text-anchor="start" x="257.6452" y="-88.3" font-family="Times,serif" font-size="14.00" fill="#000000">isRegistered: bool</text>
<text text-anchor="start" x="257.6452" y="-71.5" font-family="Times,serif" font-size="14.00" fill="#000000">statusCode: uint8</text>
<text text-anchor="start" x="257.6452" y="-54.7" font-family="Times,serif" font-size="14.00" fill="#000000">updatedTimestamp: uint256</text>
<text text-anchor="start" x="257.6452" y="-37.9" font-family="Times,serif" font-size="14.00" fill="#000000">airline: address</text>
</g>
<!-- 1struct0&#45;&gt;1 -->
<g id="edge3" class="edge">
<title>1struct0&#45;&gt;1</title>
<path fill="none" stroke="#000000" d="M357.6948,-146.5897C363.5197,-162.5779 370.2715,-181.11 377.6044,-201.2373"/>
<polygon fill="#000000" stroke="#000000" points="377.628,-201.3022 383.4403,-205.5704 381.7358,-212.5772 375.9236,-208.309 377.628,-201.3022"/>
</g>
<!-- 1struct1 -->
<g id="node6" class="node">
<title>1struct1</title>
<polygon fill="#f2f2f2" stroke="#000000" points="440.6438,-46.5 440.6438,-129.7 558.127,-129.7 558.127,-46.5 440.6438,-46.5"/>
<text text-anchor="middle" x="499.3854" y="-113.1" font-family="Times,serif" font-size="14.00" fill="#000000">&lt;&lt;struct&gt;&gt;</text>
<text text-anchor="middle" x="499.3854" y="-96.3" font-family="Times,serif" font-size="14.00" fill="#000000">Oracle</text>
<polyline fill="none" stroke="#000000" points="440.6438,-88.1 558.127,-88.1 "/>
<text text-anchor="start" x="448.6438" y="-71.5" font-family="Times,serif" font-size="14.00" fill="#000000">isRegistered: bool</text>
<text text-anchor="start" x="448.6438" y="-54.7" font-family="Times,serif" font-size="14.00" fill="#000000">indexes: uint8[]</text>
</g>
<!-- 1struct1&#45;&gt;1 -->
<g id="edge4" class="edge">
<title>1struct1&#45;&gt;1</title>
<path fill="none" stroke="#000000" d="M499.3854,-129.7885C499.3854,-148.685 499.3854,-172.8953 499.3854,-200.0643"/>
<polygon fill="#000000" stroke="#000000" points="499.3855,-200.3126 503.3854,-206.3127 499.3854,-212.3126 495.3854,-206.3126 499.3855,-200.3126"/>
</g>
<!-- 1struct2 -->
<g id="node7" class="node">
<title>1struct2</title>
<polygon fill="#f2f2f2" stroke="#000000" points="576.3845,-38.1 576.3845,-138.1 808.3863,-138.1 808.3863,-38.1 576.3845,-38.1"/>
<text text-anchor="middle" x="692.3854" y="-121.5" font-family="Times,serif" font-size="14.00" fill="#000000">&lt;&lt;struct&gt;&gt;</text>
<text text-anchor="middle" x="692.3854" y="-104.7" font-family="Times,serif" font-size="14.00" fill="#000000">ResponseInfo</text>
<polyline fill="none" stroke="#000000" points="576.3845,-96.5 808.3863,-96.5 "/>
<text text-anchor="start" x="584.3845" y="-79.9" font-family="Times,serif" font-size="14.00" fill="#000000">requester: address</text>
<text text-anchor="start" x="584.3845" y="-63.1" font-family="Times,serif" font-size="14.00" fill="#000000">isOpen: bool</text>
<text text-anchor="start" x="584.3845" y="-46.3" font-family="Times,serif" font-size="14.00" fill="#000000">responses: mapping(uint8=&gt;address[])</text>
</g>
<!-- 1struct2&#45;&gt;1 -->
<g id="edge5" class="edge">
<title>1struct2&#45;&gt;1</title>
<path fill="none" stroke="#000000" d="M670.8076,-138.1202C663.1306,-155.9166 653.8108,-177.5212 643.5275,-201.3593"/>
<polygon fill="#000000" stroke="#000000" points="643.4905,-201.445 644.7868,-208.5386 638.7373,-212.4635 637.4411,-205.3698 643.4905,-201.445"/>
</g>
<!-- 2&#45;&gt;0 -->
<g id="edge11" class="edge">
<title>2&#45;&gt;0</title>
<path fill="none" stroke="#000000" d="M313.0997,-1373.013C309.7408,-1377.3208 306.406,-1381.5977 303.1024,-1385.8346"/>
<polygon fill="none" stroke="#000000" points="294.7391,-1379.4845 284.5726,-1409.5992 311.2999,-1392.3973 294.7391,-1379.4845"/>
</g>
<!-- 3 -->
<g id="node9" class="node">
<title>3</title>
<polygon fill="#f2f2f2" stroke="#000000" points="796.9359,-1485.5 796.9359,-1559.9 851.8349,-1559.9 851.8349,-1485.5 796.9359,-1485.5"/>
<text text-anchor="middle" x="824.3854" y="-1543.3" font-family="Times,serif" font-size="14.00" fill="#000000">Flights</text>
<polyline fill="none" stroke="#000000" points="796.9359,-1535.1 851.8349,-1535.1 "/>
<text text-anchor="middle" x="824.3854" y="-1518.5" font-family="Times,serif" font-size="14.00" fill="#000000"> </text>
<polyline fill="none" stroke="#000000" points="796.9359,-1510.3 851.8349,-1510.3 "/>
<text text-anchor="middle" x="824.3854" y="-1493.7" font-family="Times,serif" font-size="14.00" fill="#000000"> </text>
</g>
<!-- 2&#45;&gt;3 -->
<g id="edge13" class="edge">
<title>2&#45;&gt;3</title>
<path fill="none" stroke="#000000" d="M699.1968,-1373.013C728.3339,-1407.8519 755.7792,-1440.668 777.5046,-1466.645"/>
<polygon fill="none" stroke="#000000" points="769.5106,-1473.4535 796.8114,-1489.7299 785.6195,-1459.9811 769.5106,-1473.4535"/>
</g>
<!-- 5 -->
<g id="node13" class="node">
<title>5</title>
<polygon fill="#f2f2f2" stroke="#000000" points="1021.5551,-1477.1 1021.5551,-1568.3 1147.2157,-1568.3 1147.2157,-1477.1 1021.5551,-1477.1"/>
<text text-anchor="middle" x="1084.3854" y="-1551.7" font-family="Times,serif" font-size="14.00" fill="#000000">Passengers</text>
<polyline fill="none" stroke="#000000" points="1021.5551,-1543.5 1147.2157,-1543.5 "/>
<text text-anchor="start" x="1029.5551" y="-1526.9" font-family="Times,serif" font-size="14.00" fill="#000000">Private:</text>
<text text-anchor="start" x="1029.5551" y="-1510.1" font-family="Times,serif" font-size="14.00" fill="#000000"> &#160;&#160;numAirlines: uint</text>
<polyline fill="none" stroke="#000000" points="1021.5551,-1501.9 1147.2157,-1501.9 "/>
<text text-anchor="middle" x="1084.3854" y="-1485.3" font-family="Times,serif" font-size="14.00" fill="#000000"> </text>
</g>
<!-- 2&#45;&gt;5 -->
<g id="edge12" class="edge">
<title>2&#45;&gt;5</title>
<path fill="none" stroke="#000000" d="M720.266,-1368.4274C722.9609,-1370.1242 725.6676,-1371.7826 728.3854,-1373.4 780.6413,-1404.4983 803.6313,-1387.5655 860.3854,-1409.4 905.8817,-1426.9034 954.3846,-1450.7415 994.5808,-1472.0369"/>
<polygon fill="none" stroke="#000000" points="989.8737,-1481.4281 1021.2607,-1486.4393 999.8493,-1462.9487 989.8737,-1481.4281"/>
</g>
<!-- 3struct0 -->
<g id="node10" class="node">
<title>3struct0</title>
<polygon fill="#f2f2f2" stroke="#000000" points="737.6452,-1075.7 737.6452,-1192.5 911.1256,-1192.5 911.1256,-1075.7 737.6452,-1075.7"/>
<text text-anchor="middle" x="824.3854" y="-1175.9" font-family="Times,serif" font-size="14.00" fill="#000000">&lt;&lt;struct&gt;&gt;</text>
<text text-anchor="middle" x="824.3854" y="-1159.1" font-family="Times,serif" font-size="14.00" fill="#000000">Flight</text>
<polyline fill="none" stroke="#000000" points="737.6452,-1150.9 911.1256,-1150.9 "/>
<text text-anchor="start" x="745.6452" y="-1134.3" font-family="Times,serif" font-size="14.00" fill="#000000">isRegistered: bool</text>
<text text-anchor="start" x="745.6452" y="-1117.5" font-family="Times,serif" font-size="14.00" fill="#000000">statusCode: uint8</text>
<text text-anchor="start" x="745.6452" y="-1100.7" font-family="Times,serif" font-size="14.00" fill="#000000">updatedTimestamp: uint256</text>
<text text-anchor="start" x="745.6452" y="-1083.9" font-family="Times,serif" font-size="14.00" fill="#000000">airline: address</text>
</g>
<!-- 3struct0&#45;&gt;3 -->
<g id="edge6" class="edge">
<title>3struct0&#45;&gt;3</title>
<path fill="none" stroke="#000000" d="M824.3854,-1192.6981C824.3854,-1269.1056 824.3854,-1401.434 824.3854,-1473.1142"/>
<polygon fill="#000000" stroke="#000000" points="824.3855,-1473.3444 828.3854,-1479.3444 824.3854,-1485.3444 820.3854,-1479.3443 824.3855,-1473.3444"/>
</g>
<!-- 3enum0 -->
<g id="node11" class="node">
<title>3enum0</title>
<polygon fill="#f2f2f2" stroke="#000000" points="929.1736,-1092.5 929.1736,-1175.7 1013.5972,-1175.7 1013.5972,-1092.5 929.1736,-1092.5"/>
<text text-anchor="middle" x="971.3854" y="-1159.1" font-family="Times,serif" font-size="14.00" fill="#000000">&lt;&lt;enum&gt;&gt;</text>
<text text-anchor="middle" x="971.3854" y="-1142.3" font-family="Times,serif" font-size="14.00" fill="#000000">FlightStatus</text>
<polyline fill="none" stroke="#000000" points="929.1736,-1134.1 1013.5972,-1134.1 "/>
<text text-anchor="start" x="937.1736" y="-1117.5" font-family="Times,serif" font-size="14.00" fill="#000000">OnSchedule</text>
<text text-anchor="start" x="937.1736" y="-1100.7" font-family="Times,serif" font-size="14.00" fill="#000000">Delayed</text>
</g>
<!-- 3enum0&#45;&gt;3 -->
<g id="edge7" class="edge">
<title>3enum0&#45;&gt;3</title>
<path fill="none" stroke="#000000" d="M967.0839,-1176.0985C961.0344,-1224.9772 947.5637,-1307.4147 920.3854,-1373.4 904.9157,-1410.9583 879.9255,-1449.4212 859.3201,-1477.8999"/>
<polygon fill="#000000" stroke="#000000" points="859.0612,-1478.2521 858.7297,-1485.4556 851.9528,-1487.9202 852.2843,-1480.7167 859.0612,-1478.2521"/>
</g>
<!-- 4 -->
<g id="node12" class="node">
<title>4</title>
<polygon fill="#f2f2f2" stroke="#000000" points="826.345,-.5 826.345,-175.7 1032.4258,-175.7 1032.4258,-.5 826.345,-.5"/>
<text text-anchor="middle" x="929.3854" y="-159.1" font-family="Times,serif" font-size="14.00" fill="#000000">Migrations</text>
<polyline fill="none" stroke="#000000" points="826.345,-150.9 1032.4258,-150.9 "/>
<text text-anchor="start" x="834.345" y="-134.3" font-family="Times,serif" font-size="14.00" fill="#000000">Public:</text>
<text text-anchor="start" x="834.345" y="-117.5" font-family="Times,serif" font-size="14.00" fill="#000000"> &#160;&#160;owner: address</text>
<text text-anchor="start" x="834.345" y="-100.7" font-family="Times,serif" font-size="14.00" fill="#000000"> &#160;&#160;last_completed_migration: uint</text>
<polyline fill="none" stroke="#000000" points="826.345,-92.5 1032.4258,-92.5 "/>
<text text-anchor="start" x="834.345" y="-75.9" font-family="Times,serif" font-size="14.00" fill="#000000">Public:</text>
<text text-anchor="start" x="834.345" y="-59.1" font-family="Times,serif" font-size="14.00" fill="#000000"> &#160;&#160;&#160;&lt;&lt;modifier&gt;&gt; restricted()</text>
<text text-anchor="start" x="834.345" y="-42.3" font-family="Times,serif" font-size="14.00" fill="#000000"> &#160;&#160;&#160;constructor()</text>
<text text-anchor="start" x="834.345" y="-25.5" font-family="Times,serif" font-size="14.00" fill="#000000"> &#160;&#160;&#160;setCompleted(completed: uint)</text>
<text text-anchor="start" x="834.345" y="-8.7" font-family="Times,serif" font-size="14.00" fill="#000000"> &#160;&#160;&#160;upgrade(new_address: address)</text>
</g>
<!-- 4&#45;&gt;4 -->
<g id="edge14" class="edge">
<title>4&#45;&gt;4</title>
<path fill="none" stroke="#000000" stroke-dasharray="5,2" d="M1032.4748,-18.5431C1043.4072,-32.0306 1050.4258,-55.2162 1050.4258,-88.1 1050.4258,-114.8181 1045.7924,-135.1339 1038.191,-149.0474"/>
<polygon fill="#000000" stroke="#000000" points="1035.0902,-147.39 1032.4748,-157.6569 1040.9219,-151.2619 1035.0902,-147.39"/>
</g>
<!-- 5struct0 -->
<g id="node14" class="node">
<title>5struct0</title>
<polygon fill="#f2f2f2" stroke="#000000" points="1154.9895,-1084.1 1154.9895,-1184.1 1337.7813,-1184.1 1337.7813,-1084.1 1154.9895,-1084.1"/>
<text text-anchor="middle" x="1246.3854" y="-1167.5" font-family="Times,serif" font-size="14.00" fill="#000000">&lt;&lt;struct&gt;&gt;</text>
<text text-anchor="middle" x="1246.3854" y="-1150.7" font-family="Times,serif" font-size="14.00" fill="#000000">Passenger</text>
<polyline fill="none" stroke="#000000" points="1154.9895,-1142.5 1337.7813,-1142.5 "/>
<text text-anchor="start" x="1162.9895" y="-1125.9" font-family="Times,serif" font-size="14.00" fill="#000000">passengerAddress: address</text>
<text text-anchor="start" x="1162.9895" y="-1109.1" font-family="Times,serif" font-size="14.00" fill="#000000">funds: uint256</text>
<text text-anchor="start" x="1162.9895" y="-1092.3" font-family="Times,serif" font-size="14.00" fill="#000000">isRegistered: PassengerStatus</text>
</g>
<!-- 5struct0&#45;&gt;5 -->
<g id="edge8" class="edge">
<title>5struct0&#45;&gt;5</title>
<path fill="none" stroke="#000000" d="M1225.5384,-1184.1071C1195.4228,-1256.3473 1139.8922,-1389.5521 1108.2004,-1465.5735"/>
<polygon fill="#000000" stroke="#000000" points="1108.1323,-1465.737 1109.5156,-1472.8142 1103.5148,-1476.8131 1102.1315,-1469.7359 1108.1323,-1465.737"/>
</g>
<!-- 5enum0 -->
<g id="node15" class="node">
<title>5enum0</title>
<polygon fill="#f2f2f2" stroke="#000000" points="1031.2858,-1100.9 1031.2858,-1167.3 1137.485,-1167.3 1137.485,-1100.9 1031.2858,-1100.9"/>
<text text-anchor="middle" x="1084.3854" y="-1150.7" font-family="Times,serif" font-size="14.00" fill="#000000">&lt;&lt;enum&gt;&gt;</text>
<text text-anchor="middle" x="1084.3854" y="-1133.9" font-family="Times,serif" font-size="14.00" fill="#000000">PassengerStatus</text>
<polyline fill="none" stroke="#000000" points="1031.2858,-1125.7 1137.485,-1125.7 "/>
<text text-anchor="start" x="1039.2858" y="-1109.1" font-family="Times,serif" font-size="14.00" fill="#000000">Registered</text>
</g>
<!-- 5enum0&#45;&gt;5 -->
<g id="edge9" class="edge">
<title>5enum0&#45;&gt;5</title>
<path fill="none" stroke="#000000" d="M1084.3854,-1167.5682C1084.3854,-1233.8483 1084.3854,-1382.5071 1084.3854,-1464.9223"/>
<polygon fill="#000000" stroke="#000000" points="1084.3855,-1465.0707 1088.3854,-1471.0708 1084.3854,-1477.0707 1080.3854,-1471.0707 1084.3855,-1465.0707"/>
</g>
</g>
</svg>
