<?xml version="1.0" encoding="UTF-8"?>
<svg width="1600px" height="800px" viewBox="0 0 1600 800" xmlns="http://www.w3.org/2000/svg" xmlns:xlink="http://www.w3.org/1999/xlink" version="1.1">
 <!-- Generated by Pixelmator Pro 2.0.3 -->
 <path id="Path" d="M0 0 L1600 0 1600 800 0 800 Z" fill="#ffffff" fill-opacity="1" stroke="none"/>
 <g id="group"/>
 <g id="group-1">
  <g id="group-2"/>
  <g id="group-3"/>
 </g>
 <g id="group-4">
  <g id="group-5">
   <g id="group-6">
    <g id="group-7"/>
    <g id="group-8"/>
   </g>
   <g id="group-9">
    <g id="group-10"/>
    <g id="group-11"/>
   </g>
   <g id="group-12">
    <path id="Path-1" d="M31 744 L1478 744" fill="#000000" fill-opacity="1" stroke="#ebf0f8" stroke-width="2" stroke-opacity="1" stroke-linejoin="round"/>
   </g>
   <g id="group-13"/>
   <g id="group-14"/>
   <g id="group-15"/>
   <g id="group-16"/>
   <g id="group-17">
    <g id="group-18">
     <g id="group-19">
      <g id="group-20">
       <g id="group-21">
        <path id="Path-2" d="M1478 744 L31 744 31 724.31 57.41 723.77 83.81 720.37 110.22 720.31 136.63 717.81 163.03 714.58 189.44 709.93 215.84 711.64 242.25 715.4 268.66 715.85 295.06 724.57 321.47 726.93 347.88 725.97 400.69 722.93 427.09 721.93 479.91 717.9 506.31 717.41 532.72 717.92 559.13 717.24 585.53 715.72 611.94 712.52 638.34 712.89 664.75 702.56 691.16 691.76 717.56 685.19 743.97 675.07 770.38 667.66 796.78 641.85 823.19 630.73 849.59 614.41 876 587.42 902.41 553.32 928.81 521.52 981.63 465.5 1008.03 448.95 1060.84 430.09 1087.25 430.45 1113.66 419.91 1140.06 413.54 1166.47 444.41 1192.88 428.04 1219.28 391.56 1245.69 382.91 1272.09 390 1298.5 359.71 1324.91 359.26 1351.31 323.24 1377.72 307.4 1385.26 287.92 1411.67 216.21 1438.08 106.91 1464.48 60.95 1478 66" fill="#3b5998" fill-opacity="1" stroke="none"/>
       </g>
      </g>
      <g id="group-22"/>
      <g id="group-23">
       <path id="Path-3" d="M31 724.31 L57.41 723.77 83.81 720.37 110.22 720.31 136.63 717.81 163.03 714.58 189.44 709.93 215.84 711.64 242.25 715.4 268.66 715.85 295.06 724.57 321.47 726.93 347.88 725.97 400.69 722.93 427.09 721.93 479.91 717.9 506.31 717.41 532.72 717.92 559.13 717.24 585.53 715.72 611.94 712.52 638.34 712.89 664.75 702.56 691.16 691.76 717.56 685.19 743.97 675.07 770.38 667.66 796.78 641.85 823.19 630.73 849.59 614.41 876 587.42 902.41 553.32 928.81 521.52 981.63 465.5 1008.03 448.95 1060.84 430.09 1087.25 430.45 1113.66 419.91 1140.06 413.54 1166.47 444.41 1192.88 428.04 1219.28 391.56 1245.69 382.91 1272.09 390 1298.5 359.71 1324.91 359.26 1351.31 323.24 1377.72 307.4 1385.26 287.92 1411.67 216.21 1438.08 106.91 1464.48 60.95 1478 66" fill="none" stroke="#3b5998" stroke-width="4" stroke-opacity="1" stroke-linejoin="round"/>
      </g>
      <g id="group-24"/>
      <g id="group-25"/>
     </g>
    </g>
   </g>
   <g id="group-26"/>
   <g id="group-27"/>
   <g id="group-28">
    <g id="group-29">
     <defs>
      <text id="string" transform="matrix(1.0 0.0 0.0 1.0 182.63186645508 743.0)" font-family="OpenSans-Regular, Open Sans" text-decoration="none" x="1.03125" font-size="24" y="26.0">Mar 2020</text>
     </defs>
     <use id="Mar-2020" xlink:href="#string" fill="#000000" fill-opacity="1" stroke="none"/>
    </g>
    <g id="group-30">
     <defs>
      <text id="string-1" transform="matrix(1.0 0.0 0.0 1.0 409.59344482422 743.0)" font-family="OpenSans-Regular, Open Sans" text-decoration="none" x="1.8828125" y="26.0" font-size="24">May 2020</text>
     </defs>
     <use id="May-2020" xlink:href="#string-1" fill="#000000" fill-opacity="1" stroke="none"/>
    </g>
    <g id="group-31">
     <defs>
      <text id="string-2" transform="matrix(1.0 0.0 0.0 1.0 659.65264892578 743.0)" font-family="OpenSans-Regular, Open Sans" text-decoration="none" x="1.83203125" y="26.0" font-size="24">Jul 2020</text>
     </defs>
     <use id="Jul-2020" xlink:href="#string-2" fill="#000000" fill-opacity="1" stroke="none"/>
    </g>
    <g id="group-32">
     <defs>
      <text id="string-3" transform="matrix(1.0 0.0 0.0 1.0 879.4662475586 743.0)" font-family="OpenSans-Regular, Open Sans" text-decoration="none" x="1.765625" y="26.0" font-size="24">Sep 2020</text>
     </defs>
     <use id="Sep-2020" xlink:href="#string-3" fill="#000000" fill-opacity="1" stroke="none"/>
    </g>
    <g id="group-33">
     <defs>
      <text id="string-4" transform="matrix(1.0 0.0 0.0 1.0 1106.94152832032 743.0)" font-family="OpenSans-Regular, Open Sans" font-size="24" text-decoration="none" y="26.0" x="1.130859375">Nov 2020</text>
     </defs>
     <use id="Nov-2020" xlink:href="#string-4" fill="#000000" fill-opacity="1" stroke="none"/>
    </g>
    <g id="group-34">
     <defs>
      <text id="string-5" transform="matrix(1.0 0.0 0.0 1.0 1347.1240234375 743.0)" text-decoration="none" font-size="24" x="1.193359375" y="26.0" font-family="OpenSans-Regular, Open Sans">Jan 2021</text>
     </defs>
     <use id="Jan-2021" xlink:href="#string-5" fill="#000000" fill-opacity="1" stroke="none"/>
    </g>
   </g>
   <g id="group-35">
    <path id="Path-4" d="M1479 744 L1484 744" fill="#000000" fill-opacity="1" stroke="#444444" stroke-width="1" stroke-opacity="1" stroke-linejoin="round"/>
    <path id="Path-5" d="M1479 599.62 L1484 599.62" fill="#000000" fill-opacity="1" stroke="#444444" stroke-width="1" stroke-opacity="1" stroke-linejoin="round"/>
    <path id="Path-6" d="M1479 455.24 L1484 455.24" fill="#000000" fill-opacity="1" stroke="#444444" stroke-width="1" stroke-opacity="1" stroke-linejoin="round"/>
    <path id="Path-7" d="M1479 310.86 L1484 310.86" fill="#000000" fill-opacity="1" stroke="#444444" stroke-width="1" stroke-opacity="1" stroke-linejoin="round"/>
    <path id="Path-8" d="M1479 166.48 L1484 166.48" fill="#000000" fill-opacity="1" stroke="#444444" stroke-width="1" stroke-opacity="1" stroke-linejoin="round"/>
    <g id="group-36">
     <defs>
      <text id="string-6" transform="matrix(1.0 0.0 0.0 1.0 1487.8 726.4)" y="26.0" font-family="OpenSans-Regular, Open Sans" font-size="24" x="1.0" text-decoration="none">0</text>
     </defs>
     <use id="0" xlink:href="#string-6" fill="#000000" fill-opacity="1" stroke="none"/>
    </g>
    <g id="group-37">
     <defs>
      <text id="string-7" transform="matrix(1.0 0.0 0.0 1.0 1487.8 582.01999511718)" text-decoration="none" y="26.0" font-size="24" x="1.0" font-family="OpenSans-Regular, Open Sans">5B</text>
     </defs>
     <use id="5B" xlink:href="#string-7" fill="#000000" fill-opacity="1" stroke="none"/>
    </g>
    <g id="group-38">
     <defs>
      <text id="string-8" transform="matrix(1.0 0.0 0.0 1.0 1487.8 437.63999023436)" text-decoration="none" y="26.0" x="1.0" font-family="OpenSans-Regular, Open Sans" font-size="24">10B</text>
     </defs>
     <use id="10B" xlink:href="#string-8" fill="#000000" fill-opacity="1" stroke="none"/>
    </g>
    <g id="group-39">
     <defs>
      <text id="string-9" transform="matrix(1.0 0.0 0.0 1.0 1487.8 293.25998535156)" y="26.0" font-family="OpenSans-Regular, Open Sans" x="1.0" text-decoration="none" font-size="24">15B</text>
     </defs>
     <use id="15B" xlink:href="#string-9" fill="#000000" fill-opacity="1" stroke="none"/>
    </g>
    <g id="group-40">
     <defs>
      <text id="string-10" transform="matrix(1.0 0.0 0.0 1.0 1487.8 148.87999572753995)" text-decoration="none" y="26.0" x="1.0" font-family="OpenSans-Regular, Open Sans" font-size="24">20B</text>
     </defs>
     <use id="20B" xlink:href="#string-10" fill="#000000" fill-opacity="1" stroke="none"/>
    </g>
   </g>
   <g id="group-41"/>
  </g>
 </g>
 <g id="group-42"/>
 <g id="group-43"/>
 <g id="group-44"/>
 <g id="group-45"/>
 <g id="group-46"/>
 <g id="group-47"/>
 <g id="group-48">
  <g id="group-49"/>
  <g id="group-50"/>
 </g>
 <g id="group-51">
  <g id="group-52"/>
  <g id="group-53"/>
  <g id="group-54">
   <defs>
    <text id="string-11" transform="matrix(6.123233995736766e-17 -1.0 1.0 6.123233995736766e-17 1546.0 540.80908203124)" y="27.0" font-family="ProximaNova-Bold, Proxima Nova" font-size="29" x="1.6564999999999657" text-decoration="none">Total Value Locked (USD)</text>
   </defs>
   <use id="Total-Value-Locked-(USD)" xlink:href="#string-11" fill="#000000" fill-opacity="1" stroke="none"/>
  </g>
 </g>
</svg>
